<svg width="225" height="55" viewBox="0 0 225 55" fill="none" xmlns="http://www.w3.org/2000/svg">
<g filter="url(#filter0_d_2088_3329)">
<g clip-path="url(#clip0_2088_3329)">
<path fill-rule="evenodd" clip-rule="evenodd" d="M39.201 0.800293V4.00029H45.6005V36.0003H27.3442C33.3978 33.2175 37.6011 27.0998 37.6011 20.0003C37.6011 12.9008 33.3978 6.78304 27.3442 4.00029H29.6017V0.800293H39.201ZM40.8009 10.4003C41.6845 10.4003 42.4008 9.68395 42.4008 8.80029C42.4008 7.91664 41.6845 7.20029 40.8009 7.20029C39.9173 7.20029 39.201 7.91664 39.201 8.80029C39.201 9.68395 39.9173 10.4003 40.8009 10.4003Z" fill="white"/>
<path fill-rule="evenodd" clip-rule="evenodd" d="M20.0017 27.2003C23.9779 27.2003 27.2012 23.9767 27.2012 20.0003C27.2012 16.0238 23.9779 12.8003 20.0017 12.8003C16.0256 12.8003 12.8022 16.0238 12.8022 20.0003C12.8022 23.9767 16.0256 27.2003 20.0017 27.2003ZM24.8014 20.0003C25.2432 20.0003 25.6072 19.6403 25.5443 19.203C25.4779 18.7418 25.3542 18.2896 25.1751 17.8572C24.8937 17.1778 24.4812 16.5605 23.9612 16.0405C23.4413 15.5205 22.824 15.108 22.1446 14.8265C21.7122 14.6474 21.2601 14.5237 20.799 14.4573C20.3617 14.3944 20.0017 14.7584 20.0017 15.2003C20.0017 15.6421 20.3634 15.9922 20.7963 16.08C21.0477 16.131 21.2942 16.2061 21.5323 16.3047C22.0176 16.5058 22.4585 16.8004 22.8299 17.1718C23.2014 17.5433 23.496 17.9842 23.697 18.4695C23.7956 18.7077 23.8707 18.9542 23.9217 19.2056C24.0095 19.6386 24.3596 20.0003 24.8014 20.0003Z" fill="white"/>
<path d="M20 4.00024H11.8021C11.4562 4.46644 11.1334 4.95728 10.8362 5.47209C7.8802 10.5921 8.24115 16.7184 11.254 21.36C11.218 20.9115 11.1997 20.458 11.1997 20.0004C11.1997 12.7024 15.8532 6.49123 22.3548 4.17232C21.5863 4.05896 20.8 4.00024 20 4.00024Z" fill="#00FFFF"/>
<path d="M25.5645 4.9944C29.8219 6.57376 33.2245 9.91316 34.8884 14.1288C29.6292 9.65514 21.9215 8.72947 15.5998 12.3793C15.2035 12.6081 14.82 12.8507 14.4495 13.1061C16.6104 8.86733 20.702 5.77754 25.5645 4.9944Z" fill="#00FFFF"/>
<path d="M36 20.0002C36 19.0847 35.9231 18.1872 35.7754 17.3137C32.6659 13.496 27.9454 11.4984 23.1952 11.7463C23.6016 11.9394 24.0034 12.1503 24.3997 12.3791C30.7191 16.0276 33.7714 23.1616 32.5303 29.9507C34.7023 27.2192 36 23.7613 36 20.0002Z" fill="#00FFFF"/>
<path d="M4 24.8353V32.9272C6.32368 34.3683 9.06467 35.2003 12 35.2003C17.912 35.2003 23.0371 31.8246 25.5505 26.8946C25.18 27.15 24.7964 27.3925 24.4002 27.6213C17.6168 31.5377 9.23748 30.1859 4 24.8353Z" fill="#00FFFF"/>
<path d="M9.85985 4.00024C9.71913 4.21994 9.58279 4.44395 9.45099 4.67222C4.8118 12.7075 7.56491 22.9823 15.6002 27.6214C15.9965 27.8502 16.3984 28.0611 16.8048 28.2543C11.9388 28.5082 7.10387 26.4059 4 22.4044V4.00024H9.85985Z" fill="#00FFFF"/>
<path d="M20 36.0002C23.8839 36.0002 27.4446 34.6164 30.2159 32.3148C31.9654 27.7142 31.3346 22.6292 28.7456 18.6405C28.7816 19.0891 28.7999 19.5425 28.7999 20.0001C28.7999 27.4869 23.9027 33.8298 17.1369 36.0002H20Z" fill="#00FFFF"/>
<path d="M6.86354 36.0002H4V34.7766C4.90732 35.2688 5.86509 35.6799 6.86354 36.0002Z" fill="#00FFFF"/>
</g>
<path d="M59.0404 4H75.0404V10.4H59.0404C57.2731 10.4 55.8404 11.8327 55.8404 13.6C55.8404 15.3673 57.2731 16.8 59.0404 16.8H65.4404C70.7424 16.8 75.0404 21.0981 75.0404 26.4C75.0404 31.7019 70.7424 36 65.4404 36H49.4404V29.6H65.4404C67.2077 29.6 68.6404 28.1673 68.6404 26.4C68.6404 24.6327 67.2077 23.2 65.4404 23.2H59.0404C53.7385 23.2 49.4404 18.9019 49.4404 13.6C49.4404 8.29807 53.7385 4 59.0404 4Z" fill="white"/>
<path d="M78.8799 10.4H89.2799V36H95.6799V10.4H106.08V4H78.8799V10.4Z" fill="white"/>
<path d="M109.92 4H116.32V21.6C116.32 26.0183 119.902 29.6 124.32 29.6C128.739 29.6 132.32 26.0183 132.32 21.6V4H138.72V21.6C138.72 29.5529 132.273 36 124.32 36C116.368 36 109.92 29.5529 109.92 21.6V4Z" fill="white"/>
<path fill-rule="evenodd" clip-rule="evenodd" d="M142.56 4V36H158.56C167.397 36 174.56 28.8366 174.56 20C174.56 11.1634 167.397 4 158.56 4H142.56ZM158.56 29.6C163.862 29.6 168.16 25.3019 168.16 20C168.16 14.6981 163.862 10.4 158.56 10.4L148.96 10.4V29.6H158.56Z" fill="white"/>
<rect x="178.4" y="4" width="6.4" height="32" fill="white"/>
<path fill-rule="evenodd" clip-rule="evenodd" d="M204.64 29.6C209.942 29.6 214.24 25.3019 214.24 20C214.24 14.6981 209.942 10.4 204.64 10.4C199.338 10.4 195.04 14.6981 195.04 20C195.04 25.3019 199.338 29.6 204.64 29.6ZM204.64 36C213.477 36 220.64 28.8366 220.64 20C220.64 11.1634 213.477 4 204.64 4C195.804 4 188.64 11.1634 188.64 20C188.64 28.8366 195.804 36 204.64 36Z" fill="white"/>
<path d="M162.336 40.48L164.528 44.3154L163.062 46.88H163.799L167.456 40.48H166.719L164.896 43.6704L163.073 40.48H162.336Z" fill="#00FFFF"/>
<path fill-rule="evenodd" clip-rule="evenodd" d="M157.92 38.5598H157.28V44.9598H157.92V43.8742C158.312 44.5247 159.025 44.9598 159.84 44.9598C161.077 44.9598 162.08 43.9569 162.08 42.7198C162.08 41.4827 161.077 40.4798 159.84 40.4798C159.025 40.4798 158.312 40.9149 157.92 41.5654V38.5598ZM161.44 42.7198C161.44 43.6035 160.724 44.3198 159.84 44.3198C158.957 44.3198 158.24 43.6035 158.24 42.7198C158.24 41.8362 158.957 41.1198 159.84 41.1198C160.724 41.1198 161.44 41.8362 161.44 42.7198Z" fill="#00FFFF"/>
<path d="M197.856 40.3201C197.856 39.7015 198.357 39.2001 198.976 39.2001H201.696V38.5601H198.976C198.004 38.5601 197.216 39.348 197.216 40.3201C197.216 41.2921 198.004 42.0801 198.976 42.0801H199.936C200.554 42.0801 201.056 42.5815 201.056 43.2001C201.056 43.8186 200.554 44.3201 199.936 44.3201H197.216V44.9601H199.936C200.908 44.9601 201.696 44.1721 201.696 43.2001C201.696 42.228 200.908 41.4401 199.936 41.4401H198.976C198.357 41.4401 197.856 40.9386 197.856 40.3201Z" fill="#00FFFF"/>
<rect x="202.976" y="38.5601" width="0.64" height="6.4" fill="#00FFFF"/>
<path fill-rule="evenodd" clip-rule="evenodd" d="M184.736 44.9601V38.5601H187.68V38.5602C188.89 38.5761 189.856 39.5783 189.856 40.8001C189.856 41.7476 189.275 42.5631 188.45 42.8888L189.857 44.9601H189.083L187.777 43.0365C187.745 43.0383 187.713 43.0394 187.68 43.0399V43.0401H185.376V44.9601H184.736ZM189.216 40.8001C189.216 41.6893 188.51 42.4001 187.651 42.4001H185.376V39.2001H187.651C188.51 39.2001 189.216 39.9108 189.216 40.8001Z" fill="#00FFFF"/>
<path fill-rule="evenodd" clip-rule="evenodd" d="M183.009 44.9602H183.712L180.803 38.5601H180.221L177.312 44.9602H178.015L178.742 43.3602H182.282L183.009 44.9602ZM181.991 42.7202L181.273 41.1395L181.273 41.1395L180.512 39.4658L179.751 41.1395L179.751 41.1395L179.033 42.7202H181.991Z" fill="#00FFFF"/>
<path fill-rule="evenodd" clip-rule="evenodd" d="M170.848 38.5601V44.9601H173.728C175.495 44.9601 176.928 43.5274 176.928 41.7601C176.928 39.9927 175.495 38.5601 173.728 38.5601H170.848ZM171.488 44.3201H173.728C175.142 44.3201 176.288 43.1739 176.288 41.7601C176.288 40.3462 175.142 39.2001 173.728 39.2001H171.488V44.3201Z" fill="#00FFFF"/>
<path fill-rule="evenodd" clip-rule="evenodd" d="M205.601 38.5601V44.9601H208.481C210.248 44.9601 211.681 43.5274 211.681 41.7601C211.681 39.9927 210.248 38.5601 208.481 38.5601H205.601ZM206.241 44.3201H208.481C209.894 44.3201 211.041 43.1739 211.041 41.7601C211.041 40.3462 209.894 39.2001 208.481 39.2001H206.241V44.3201Z" fill="#00FFFF"/>
<path fill-rule="evenodd" clip-rule="evenodd" d="M192.032 38.5601H191.392V44.9601H192.032V43.0404L193.312 41.7603L195.712 44.9601H196.512L193.769 41.3032L196.512 38.5601H195.607L192.032 42.1353V38.5601ZM193.616 41.4677H193.605L193.616 41.4563V41.4677Z" fill="#00FFFF"/>
<path d="M213.152 38.5601V44.9601H217.632V44.3201H213.792V42.0801H217.632V41.4401H213.792V39.2001H217.632V38.5601H213.152Z" fill="#00FFFF"/>
<path d="M218.272 38.5601V38.8801H220.163L218.912 41.7601H219.261L220.512 38.8802V38.5601H218.272Z" fill="#00FFFF"/>
</g>
<defs>
<filter id="filter0_d_2088_3329" x="0" y="0.800049" width="224.641" height="54.0798" filterUnits="userSpaceOnUse" color-interpolation-filters="sRGB">
<feFlood flood-opacity="0" result="BackgroundImageFix"/>
<feColorMatrix in="SourceAlpha" type="matrix" values="0 0 0 0 0 0 0 0 0 0 0 0 0 0 0 0 0 0 127 0" result="hardAlpha"/>
<feOffset dy="4"/>
<feGaussianBlur stdDeviation="2"/>
<feComposite in2="hardAlpha" operator="out"/>
<feColorMatrix type="matrix" values="0 0 0 0 0 0 0 0 0 0 0 0 0 0 0 0 0 0 0.25 0"/>
<feBlend mode="normal" in2="BackgroundImageFix" result="effect1_dropShadow_2088_3329"/>
<feBlend mode="normal" in="SourceGraphic" in2="effect1_dropShadow_2088_3329" result="shape"/>
</filter>
<clipPath id="clip0_2088_3329">
<rect width="41.6004" height="35.2" fill="white" transform="translate(4 0.800049)"/>
</clipPath>
</defs>
</svg>
